<svg xmlns="http://www.w3.org/2000/svg" width="400" height="400"><path fill="#0E538C" d="M132.01 258.632C1.361 371.296-47.667 113.619 115.228 170.433c-162.895-56.813 35.745-228.109 67.992-58.63-32.246-169.477 215.419-83.099 84.771 29.566 130.648-112.665 179.676 145.01 16.781 88.196 162.895 56.813-35.745 228.107-67.99 58.632 32.244 169.476-215.421 83.099-84.772-29.565z"/><path fill="#2A94F4" d="m284.809 229.462-82.221-29.92.066-.055-.068-.023 65.404-58.095c130.649-112.664-117.016-199.043-84.77-29.566l15.092 86.183-.078-.027.019.082-83.12-27.322c-163.082-56.273-113.201 201.236 17.072 88.14l66.895-56.374.013.068.061-.055 17.717 85.682c32.449 169.435 230.88-2.102 67.918-58.718z"/><circle cx="200.129" cy="200.044" r="45.321" fill="#FFBE55"/></svg>