<svg xmlns="http://www.w3.org/2000/svg" enable-background="new 0 0 512 512" viewBox="0 0 512 512"><path fill="#704fe8" d="M252.908,509.278c-41.48-0.664-74.611-34.007-73.828-83.617c0.451-26.281,10.662-72.151,26.342-109.367c8.501-20.176-4.049-42.753-25.673-46.183c-39.9-6.329-84.286-21.894-106.859-35.416c-42.522-25.489-53.345-71.231-31.99-106.87c21.355-35.64,66.797-47.667,109.341-22.137c22.551,13.472,57.182,45.231,81.576,77.431c13.22,17.45,39.047,17.869,52.828,0.859c25.428-31.387,61.069-62.018,84.056-74.794c43.368-24.104,88.398-10.603,108.608,25.759c20.165,36.281,7.854,81.651-35.514,105.755c-22.971,12.767-67.796,26.873-107.876,31.912c-21.711,2.73-34.981,24.882-27.143,45.312c14.47,37.718,23.177,83.904,22.726,110.207C328.719,477.736,294.512,509.977,252.908,509.278z"/><path d="M441.816,240.688c-23.012,12.773-67.796,26.892-107.892,31.905c-21.719,2.749-34.976,24.898-27.162,45.324c14.497,37.725,23.174,83.911,22.743,110.21c-0.809,49.635-34.976,81.863-76.581,81.162c-4.096-0.054-8.138-0.486-12.072-1.185c34.599-6.198,61.168-36.377,61.868-79.977c0.431-26.299-8.299-72.485-22.742-110.21c-7.868-20.425,5.443-42.575,27.162-45.324c40.042-5.012,84.881-19.131,107.839-31.905c43.383-24.09,55.671-69.467,35.515-105.736c-11.048-19.887-29.533-32.983-51.144-36.701c32.605-5.497,62.569,8.946,77.983,36.701C497.487,171.222,485.145,216.599,441.816,240.688z" opacity=".08"/><path fill="#8760f4" d="M253.479,477.969c-6.81-0.115-12.19-5.716-12.115-12.504l3.306-202.016l-0.725,0.403L71.972,160.783c-5.782-3.48-7.698-11.006-4.2-16.85c3.48-5.782,11.046-7.721,16.851-4.2l172.586,103.413l175.968-97.802c5.92-3.29,13.397-1.121,16.687,4.798c3.29,5.919,1.183,13.415-4.736,16.705L269.24,264.603l-3.297,201.273C265.868,472.664,260.227,478.066,253.479,477.969z"/><path fill="#8760f4" d="M471.699,380.694c-20.731,35.934-65.971,48.695-108.953,23.91c-22.752-13.161-57.885-44.37-82.797-76.156c-13.506-17.232-39.336-17.23-52.839,0.004c-24.915,31.801-60.083,63.035-82.868,76.197c-42.936,24.785-88.175,12.024-108.953-23.956c-20.777-35.979-9.214-81.542,33.768-106.326c22.731-13.167,67.314-28.008,107.309-33.687c21.674-3.078,34.588-25.449,26.414-45.758c-15.082-37.474-24.541-83.507-24.541-109.806c0-49.616,33.676-82.417,75.277-82.417c41.508,0,75.184,32.801,75.184,82.417c0,26.28-9.447,72.313-24.513,109.794c-8.161,20.303,4.755,42.663,26.42,45.737c39.998,5.675,84.597,20.502,107.369,33.674C480.959,299.106,492.522,344.668,471.699,380.694z"/><path d="M471.726,380.702c-15.898,27.593-46.294,41.497-78.953,35.245c20.318-4.096,37.779-16.491,48.557-35.245c20.856-36.054,9.269-81.593-33.737-106.384c-22.743-13.149-67.366-27.97-107.354-33.683c-21.665-3.072-34.545-25.437-26.407-45.701c15.09-37.509,24.521-83.533,24.521-109.832c0-43.384-25.814-73.94-60.036-80.893c4.904-0.97,10.024-1.509,15.198-1.509c41.497,0,75.18,32.82,75.18,82.402c0,26.299-9.431,72.323-24.521,109.832c-8.138,20.264,4.743,42.629,26.407,45.701c40.042,5.713,84.611,20.533,107.408,33.683C480.942,299.108,492.529,344.647,471.726,380.702z" opacity=".08"/><path fill="#704fe8" d="M444.611,364.985c-3.409,5.897-10.918,7.878-16.815,4.515L252.826,268.471v0.829L79.193,369.546c-5.851,3.363-13.36,1.382-16.769-4.515c-3.363-5.851-1.382-13.406,4.515-16.769l174.232-100.614V46.327c0-6.773,5.528-12.255,12.3-12.255s12.3,5.482,12.3,12.255v201.228l174.324,100.66C445.993,351.579,447.974,359.134,444.611,364.985z"/><circle cx="253.517" cy="257.552" r="54.926" fill="#ffce29" transform="rotate(-67.5 253.513 257.546)"/><path fill="#fff" d="M220.157,265.641c-0.008,0-0.016,0-0.024,0c-4.463-0.011-8.073-3.642-8.06-8.105c0.039-13.568,6.747-26.309,17.947-34.093c3.66-2.547,8.702-1.642,11.252,2.021c2.547,3.668,1.639,8.705-2.026,11.252c-6.865,4.773-10.981,12.573-11.005,20.862C228.227,262.036,224.612,265.641,220.157,265.641z" opacity=".4"/></svg>